<svg width="30" height="32" viewBox="0 0 30 32" fill="none" xmlns="http://www.w3.org/2000/svg">
<path d="M0.0477757 14.9425C1.32858 14.8548 2.59472 14.7686 3.871 14.9582C4.36162 18.068 3.02929 22.5468 5.97504 24.6967C7.51214 25.8186 10.2963 25.865 12.1442 25.7945C12.8878 25.7659 13.636 25.6665 14.3798 25.6856C16.2698 25.7345 18.1007 25.9739 20.0066 25.8349C20.6348 25.9029 20.7959 25.3149 20.4666 24.8194C19.46 23.0308 18.1113 21.4685 16.7574 19.941C16.0937 19.9027 15.4299 19.9344 14.7662 19.956C14.706 18.9172 14.7037 18.0395 14.7194 16.8649L14.7037 15.9041C15.7402 15.7847 18.0032 15.3614 18.8655 16.0473C20.1102 17.0374 23.8084 22.975 25.015 22.8257C25.1257 22.8119 25.2272 22.745 25.3189 22.6851C25.405 22.5417 25.4943 22.3999 25.5682 22.2497L25.7218 22.3134C25.7055 22.9894 27.6824 24.7253 28.1299 25.2395L27.845 25.4453L27.8306 25.4679C27.6674 25.7295 27.5954 25.9868 27.6624 26.2955C27.8665 27.2382 29.6733 28.8708 29.2611 29.5363C28.8392 30.2177 27.4453 31.1912 26.6601 31.3358C26.4588 31.3728 26.2126 31.1971 26.0572 31.0804C25.259 30.4806 24.6017 29.503 24.0323 28.6861C23.2486 29.082 22.2689 29.2956 21.3979 29.3919C19.6877 29.5808 17.6236 29.4412 15.8763 29.4396C13.5981 29.4377 11.2271 29.5673 8.95958 29.3775C8.02263 29.2991 6.99126 29.1422 6.0989 28.8448C5.8466 28.761 5.44876 28.6585 5.27622 28.4461L5.20972 28.4128C2.7593 27.183 1.42713 25.1924 0.583951 22.6531C-0.30488 20.9305 0.0997955 16.9358 0.0477757 14.9425Z" fill="#007BFF"/>
<path d="M29.2932 29.4626C29.3 29.4391 29.3042 29.4142 29.3059 29.3882C29.3162 29.4011 29.3264 29.4141 29.3367 29.4271C29.3224 29.4387 29.3079 29.4505 29.2932 29.4626Z" fill="#007BFF"/>
<path d="M0.0477757 14.9425C1.32858 14.8548 2.59472 14.7686 3.871 14.9582C4.36162 18.068 3.02929 22.5468 5.97504 24.6967C7.51214 25.8186 10.2963 25.865 12.1442 25.7945C12.8878 25.7659 13.636 25.6665 14.3798 25.6856C16.2698 25.7345 18.1007 25.9739 20.0066 25.8349L19.8566 25.9899C16.7362 25.8641 13.6049 26.0693 10.4755 25.913C9.53655 25.8663 8.54661 25.8682 7.62997 25.6527C6.9667 25.4967 6.38418 25.2294 5.85109 24.8018C2.92294 22.4523 4.17257 18.3672 3.8173 15.1348C2.58255 14.8329 1.48885 14.9191 0.244808 15.061C0.0388818 16.9288 0.0930239 19.0661 0.294113 20.9345C0.356462 21.514 0.542167 22.0727 0.583951 22.6531C-0.30488 20.9305 0.0997955 16.9358 0.0477757 14.9425Z" fill="#007BFF"/>
<path d="M13.5392 3.72558C13.5511 3.00843 13.293 0.678582 13.6031 0.180888C14.1283 -0.144916 16.763 0.0807794 17.5978 0.0230852C18.2985 -0.0253226 19.6262 0.0230859 19.6262 0.0230859L21.9115 0.160779C24.0231 0.2287 25.9113 1.47102 27.3159 2.97414C28.2951 4.02192 29.0812 5.29967 29.44 6.69879C29.9802 8.80316 29.6582 13.1354 29.6379 15.4327C29.6229 17.1456 29.7184 18.8794 29.6616 20.5869C29.6226 21.7583 29.1052 24.4962 28.2227 25.3501C28.1166 25.453 27.993 25.4935 27.8526 25.5268C27.5443 25.4574 27.3929 25.1469 27.1651 24.953C26.7176 24.4388 25.5518 23.1149 25.568 22.4388V22.249C26.0224 19.63 25.7905 16.9292 25.7893 14.2837C25.7887 12.3919 25.9906 10.0947 25.6024 8.26195C25.4491 7.53806 25.1068 6.85072 24.677 6.25355C23.088 4.04483 20.5469 3.97443 18.0804 3.95444C17.1643 3.94701 16.2409 3.92643 15.3255 3.96351C14.9008 3.9807 13.9064 4.13364 13.5714 3.91388L13.5392 3.72558Z" fill="#007BFF"/>
<path d="M2.33311 0.30239C3.20075 0.20228 4.83312 0.111143 5.61461 0.50283C5.90669 0.777434 5.93755 1.29304 5.96165 1.6729C6.03741 2.86845 6.20755 5.17577 5.36886 6.11554C5.1028 6.4137 4.13262 6.34914 3.7535 6.3668C2.65331 6.38816 1.48635 6.41552 0.400762 6.2196C0.345175 5.91832 0.306199 5.61487 0.283835 5.30926C0.209066 4.38791 -0.040954 1.32783 0.564436 0.653104C0.917123 0.260006 1.83966 0.320618 2.33311 0.30239ZM2.39899 4.33041C2.93132 4.25521 3.4445 4.23773 3.98037 4.23635C3.94064 3.66929 3.94208 3.12495 3.97091 2.55792C3.44419 2.55453 2.91057 2.56969 2.38485 2.5439C2.391 3.138 2.41116 3.73665 2.39899 4.33041Z" fill="#007BFF"/>
<path d="M0.759734 8.91294C1.85892 8.85283 2.9363 8.87915 4.03277 8.97544C4.03277 9.93783 4.03277 12.9374 4.03277 12.9374C4.03277 12.9374 3.50708 12.9142 3.26171 12.954C2.29365 13.009 1.34365 13.0259 0.376997 12.9374C0.376996 11.7103 0.278686 10.4394 0.26709 9.44715C0.362798 9.13656 0.487496 9.05126 0.759734 8.91294Z" fill="#007BFF"/>
<path d="M8.7602 0.285986C9.88129 0.191868 11.0301 0.247961 12.1535 0.286079C12.1425 1.22343 12.4007 2.76376 12.012 3.6074C11.903 3.84417 11.762 3.8613 11.5335 3.94685C10.5129 4.12799 9.41783 4.05389 8.38364 4.03827C8.29891 3.24784 8.09262 1.1114 8.44174 0.460574C8.5182 0.318111 8.61762 0.322346 8.7602 0.285986Z" fill="#007BFF"/>
<path d="M7.82771 7.19363C8.5074 7.00361 9.55999 7.13851 10.2813 7.1488C10.2705 8.06538 10.5735 9.61637 9.94635 10.3661C9.68738 10.6758 9.38206 10.7121 9.00822 10.7441C8.18454 10.7832 7.34664 10.7298 6.52218 10.707C6.47378 9.61026 6.48898 8.49553 6.53835 7.39934C6.97183 7.29189 7.38231 7.22506 7.82771 7.19363Z" fill="#007BFF"/>
</svg>
